<?xml version="1.0" standalone="no"?>
<!DOCTYPE svg PUBLIC "-//W3C//DTD SVG 20010904//EN"
 "http://www.w3.org/TR/2001/REC-SVG-20010904/DTD/svg10.dtd">
<svg version="1.0" xmlns="http://www.w3.org/2000/svg"
 width="500.000000pt" height="500.000000pt" viewBox="0 0 500.000000 500.000000"
 preserveAspectRatio="xMidYMid meet">
<metadata>
Created by potrace 1.14, written by Peter Selinger 2001-2017
</metadata>
<g transform="translate(0.000000,500.000000) scale(0.100000,-0.100000)"
fill="#000000" stroke="none">
<path d="M2200 4979 c-442 -57 -916 -255 -1250 -524 -446 -359 -731 -801 -875
-1360 -56 -219 -67 -329 -63 -644 4 -252 7 -287 31 -408 51 -248 115 -438 217
-648 318 -654 929 -1145 1639 -1319 224 -55 321 -66 603 -66 282 0 382 11 598
65 716 179 1306 654 1635 1314 101 203 163 386 217 633 29 136 31 156 35 428
6 319 -4 410 -72 676 -197 769 -761 1405 -1505 1697 -192 75 -442 137 -629
156 -119 13 -485 12 -581 0z m607 -1676 c-4 -16 -76 -318 -162 -673 -86 -355
-173 -715 -193 -800 l-38 -155 -112 -3 c-86 -2 -112 0 -112 10 0 7 42 191 95
408 230 959 285 1193 285 1206 0 25 35 33 139 34 l104 0 -6 -27z m-729 -369
l2 -149 -342 -129 c-427 -161 -426 -161 -402 -174 11 -5 177 -71 369 -147 193
-76 356 -142 363 -148 18 -14 17 -297 -2 -297 -7 0 -121 46 -252 103 -131 57
-373 161 -536 232 l-298 129 0 135 0 136 368 159 c202 88 401 174 442 192 180
79 266 113 275 110 6 -1 11 -63 13 -152z m1272 -22 c217 -94 456 -197 530
-230 l135 -58 3 -135 3 -136 -168 -73 c-93 -40 -269 -116 -393 -170 -124 -53
-293 -127 -377 -164 -84 -36 -155 -66 -158 -66 -3 0 -5 67 -5 149 0 107 3 151
13 158 6 6 175 74 374 153 199 79 360 146 358 150 -4 7 -185 80 -645 260 l-95
38 -3 138 c-3 145 0 169 21 161 6 -3 190 -82 407 -175z"/>
</g>
</svg>
